<svg width="115" height="30" viewBox="0 0 115 30" fill="none" xmlns="http://www.w3.org/2000/svg">
<g clip-path="url(#clip0_24_1575)">
<path d="M17.444 23.3663C17.9889 23.3663 18.2774 23.6228 18.2774 24.1676C18.2774 24.5202 18.1492 25.001 17.8607 25.61C17.5722 26.2831 17.0914 27.8537 16.835 28.5268C16.5786 29.1678 15.8094 29.8409 14.6555 29.8409C14.4952 29.8409 13.8862 29.8088 12.7644 29.7447C11.6426 29.6806 10.5207 29.6486 9.39887 29.6486H1.03322C0.488338 29.6486 0.199867 29.4563 0.199867 29.0396C0.167815 28.5909 0.616547 28.4627 0.969122 28.2703C1.4499 28.046 1.80248 27.7575 2.05889 27.4049C2.44352 26.828 2.7961 25.7382 3.11662 24.1356L5.64875 11.6673C5.87312 10.5454 6.00133 9.77617 6.00133 9.29539C6.00133 8.7505 5.77696 8.36587 5.29617 8.10945C4.81539 7.85304 4.59102 7.59662 4.59102 7.37225C4.59102 6.95557 4.9436 6.76326 5.64875 6.76326H14.0465C15.2965 6.76326 16.5145 6.73121 17.7645 6.63505C19.0146 6.53889 19.7197 6.50684 19.8479 6.50684C20.521 6.50684 20.8416 6.76326 20.8416 7.24404C20.8736 7.82098 20.4569 9.4877 20.1685 11.5711C20.0723 12.3404 19.7197 12.725 19.1748 12.725C17.6684 12.725 18.8864 10.3211 16.7709 9.07102C16.0658 8.65434 14.3029 8.42998 11.4823 8.42998H10.2323C9.7835 8.42998 9.52708 8.65434 9.43092 9.10308L8.08472 15.7058C8.02062 16.0264 7.98857 16.2187 7.98857 16.3148C7.98857 16.6033 8.18088 16.7315 8.59756 16.7315C10.0079 16.7315 11.0656 16.7315 11.7708 16.6995L13.7901 16.5713C14.5593 16.5072 15.0722 16.4751 15.3606 16.4751C15.9376 16.4751 16.226 16.6354 16.226 16.9559C16.226 16.9879 16.1299 17.2444 15.9696 17.6931C15.6811 18.5585 15.3927 18.7508 14.1426 18.7508C13.8542 18.7508 13.4054 18.7188 12.7323 18.6867C12.0592 18.6547 11.5464 18.6226 11.1938 18.6226C10.5207 18.5906 9.43092 18.5906 7.92446 18.5906C7.63599 18.5906 7.47573 18.7188 7.41163 19.0072L6.3539 24.2959C6.06543 25.7703 5.93722 26.6036 5.93722 26.7959C5.93722 27.7896 6.70648 28.0139 8.14883 28.0139C10.2643 28.0139 11.8349 27.7896 12.8285 27.3408C13.8221 26.86 14.7196 26.1869 15.4568 25.2574C15.8094 24.8728 16.3222 24.1035 16.5466 23.8792C16.7709 23.6228 17.0914 23.3663 17.444 23.3663Z" fill="white"/>
<path d="M37.4506 14.7763C37.4506 15.5135 37.13 15.8982 36.489 15.8982C36.1364 15.8982 35.4954 15.6417 35.0787 15.6417C33.7325 15.6417 32.1299 17.4367 30.3029 21.0265L32.6427 26.1228C33.2196 27.3408 33.7325 28.0139 34.1812 28.1742C34.4697 28.1742 34.9184 28.3024 34.9184 28.7832C34.9184 28.9434 34.7902 29.1358 34.5658 29.296C34.053 29.6806 32.803 30.0012 32.194 30.0012C31.2645 30.0012 30.8157 29.4883 30.2708 28.2383L27.8669 22.9497C27.322 24.1356 26.5528 25.4497 25.3668 27.1165C24.213 28.7832 22.7386 30.0012 21.4885 30.0012C20.4308 30.0012 19.7256 28.9114 19.7256 27.7254C19.7256 26.9882 20.0462 26.6357 20.7193 26.6357C21.0077 26.6357 21.6808 26.86 22.0655 26.86C23.5719 26.86 25.2066 24.9369 27.0336 21.1227L24.8861 16.443C24.213 14.9366 23.8604 14.552 23.3155 14.3917C23.027 14.3917 22.6424 14.1673 22.6424 13.7827C22.6424 13.4622 22.995 13.1737 23.7322 12.9173C24.4053 12.6929 24.9502 12.5647 25.3989 12.5647C26.2643 12.5647 26.6169 12.9814 27.2579 14.3596L29.5016 19.2636C29.8542 18.5264 30.2388 17.8533 30.6555 17.1802C31.5209 15.802 32.6427 14.1353 33.8927 13.2378C35.8159 11.7314 37.5467 12.9814 37.4506 14.7763Z" fill="white"/>
<path d="M52.4734 12.5647C53.5952 12.5647 54.1401 13.4622 54.1401 15.2892C54.1401 17.5649 53.435 20.097 51.9926 22.8856C49.5887 27.5972 46.7681 30.0012 44.0437 30.0012C42.409 30.0012 40.9666 29.1358 40.3576 27.5011C40.0051 26.6036 39.8448 25.4497 39.8448 24.0394C39.8448 23.1099 39.941 21.8278 40.1333 20.1932C40.3256 18.5585 40.4217 17.3726 40.4217 16.6674C40.4217 16.0584 40.2615 15.6417 39.9089 15.4494C39.3961 15.1289 38.1781 15.1289 38.3063 14.5199C38.3063 14.1673 38.6589 13.9109 39.364 13.7507C40.5179 13.4942 41.6077 13.1417 42.6334 12.6929C42.8257 12.5968 43.018 12.5647 43.2103 12.5647C43.6911 12.5647 43.9154 12.7891 43.9154 13.2378C43.9154 13.2699 43.9154 13.3981 43.8834 13.5904L43.4667 17.052C43.0821 20.097 42.8257 22.4689 42.8257 24.1676C42.8257 26.6357 43.5629 27.8537 45.0373 27.8537C46.0309 27.8537 46.9604 27.3729 47.8579 26.3793C48.7553 25.3856 49.4925 24.2318 50.1015 22.9817C51.0952 20.8663 51.5759 19.1354 51.5759 17.7572C51.5759 14.8084 49.6208 15.5776 49.6208 14.2955C49.6208 13.8468 49.9733 13.4622 50.6464 13.1096C51.3195 12.757 51.9285 12.5647 52.4734 12.5647Z" fill="white"/>
<path d="M62.6467 26.6677C62.9031 26.6677 63.1275 26.8921 63.1275 27.1485C63.1275 27.5652 62.7429 28.1101 61.9736 28.8152C61.0761 29.6165 60.1466 30.0012 59.153 30.0012C57.7427 30.0012 56.9414 28.9755 56.9414 27.4049C56.9414 26.7959 57.0375 25.9626 57.2619 24.969L58.6402 18.238C58.8645 17.0841 58.9607 16.3789 58.9607 16.0905C58.9607 14.584 56.9734 15.1289 56.9734 14.1353C56.9734 13.7186 57.3581 13.4942 58.0953 13.3981C59.2492 13.2699 60.371 13.0455 61.4287 12.6929C61.6851 12.5968 61.8774 12.5647 62.0057 12.5647C62.4864 12.5647 62.7108 12.757 62.7108 13.1737C62.7108 13.2058 62.7108 13.3019 62.6787 13.3981L60.8197 22.4368C60.3069 25.0331 60.0505 26.5075 60.0505 26.86C60.0505 27.4049 60.2428 27.6934 60.6595 27.6934C60.9479 27.6934 61.3005 27.5331 61.7172 27.1806C62.1339 26.828 62.4544 26.6677 62.6467 26.6677Z" fill="white"/>
<path d="M65.5488 26.0587C65.5488 24.6484 65.7411 23.9433 66.6066 23.9433C66.863 23.9433 66.9912 24.0074 67.2156 24.2959C67.4399 24.4882 67.7925 25.2254 68.1451 25.8344C69.0746 27.469 70.2926 28.3024 71.8311 28.3024C72.7285 28.3024 73.5299 28.0139 74.235 27.469C74.9722 26.9241 75.3248 26.219 75.3248 25.3536C75.3248 24.0715 74.1388 23.2381 72.6324 22.7573C70.5169 22.0201 67.7284 21.1868 67.7284 18.3341C67.7284 16.5072 68.9784 14.552 71.158 13.4301C72.3119 12.8532 73.5298 12.5647 74.8119 12.5647C76.2222 12.5647 77.3761 12.8852 78.3056 13.5263C78.8826 13.943 79.171 14.5199 79.171 15.3212C79.171 15.7699 79.1069 16.2187 79.0108 16.6995C78.8505 17.4046 78.4979 17.7572 78.0172 17.7572C77.7607 17.7572 77.5684 17.6931 77.3441 17.4367L77.1197 17.1482C77.0235 17.02 76.7671 16.411 76.671 16.2828C75.9979 14.9366 75.0363 14.2635 73.7222 14.2635C72.1836 14.2635 70.6451 15.4174 70.6451 16.9879C70.6451 20.3534 78.3056 19.0713 78.3056 24.1035C78.3056 25.8985 77.1838 27.7896 75.1645 28.9114C73.8504 29.6486 72.4401 30.0012 70.8695 30.0012C68.8502 30.0012 66.9912 29.3601 66.2219 28.4947C65.7732 28.0139 65.5488 27.2126 65.5488 26.0587Z" fill="white"/>
<path d="M88.3231 15.0327C87.2333 16.1225 86.3679 17.7251 85.7269 19.8085C85.1179 21.8919 84.7974 23.6228 84.7974 25.001C84.7974 26.7639 85.3102 27.6293 86.3359 27.6293C87.4577 27.6293 88.9001 26.3151 90.727 23.7189C91.6566 22.3727 92.4258 20.9624 93.0348 19.488C93.6438 17.9816 93.9643 16.9238 93.9643 16.2828C93.9643 15.6738 93.5476 15.161 92.7143 14.7443C91.913 14.3276 91.1758 14.1032 90.5347 14.1032C89.7334 14.1032 88.9962 14.4238 88.3231 15.0327ZM97.0734 12.5647C97.4901 12.5647 97.6824 12.7891 97.6824 13.2378C97.6824 13.4942 97.2016 15.8341 96.2721 20.2893C95.4708 24.1035 95.0541 26.2831 95.0541 26.7959C95.0541 27.3729 95.2464 27.6613 95.6631 27.6613C95.9516 27.6613 96.2721 27.5011 96.6888 27.1485C97.1055 26.7959 97.426 26.6357 97.6183 26.6357C97.9709 26.6357 98.1311 26.7959 98.1311 27.1485C98.1311 27.3408 98.067 27.5331 97.9068 27.7575C97.0413 29.0396 95.5349 30.0012 94.1246 30.0012C92.6822 30.0012 91.945 29.1678 91.945 27.469C91.945 26.9882 92.1374 25.7703 92.4899 23.8471L92.522 23.6228C92.522 23.5907 92.4899 23.5587 92.4579 23.5587C92.4258 23.5587 92.3938 23.5907 92.3617 23.6548C91.4322 25.3536 90.3424 26.828 89.0283 28.1101C87.7141 29.3601 86.3359 30.0012 84.8935 30.0012C82.746 30.0012 81.4639 28.2062 81.4639 25.3856C81.4639 22.7253 82.2332 20.097 83.7396 17.5008C85.6307 14.3276 88.227 12.5647 90.8873 12.5647C91.6886 12.5647 92.5861 12.725 93.5156 13.0776C94.4772 13.4301 95.0541 13.5904 95.2464 13.5904C95.5349 13.5904 95.8875 13.4301 96.24 13.0776C96.5926 12.725 96.8811 12.5647 97.0734 12.5647Z" fill="white"/>
<path d="M100.544 26.0587C100.544 24.6484 100.736 23.9433 101.601 23.9433C101.858 23.9433 101.986 24.0074 102.21 24.2959C102.435 24.4882 102.787 25.2254 103.14 25.8344C104.069 27.469 105.287 28.3024 106.826 28.3024C107.723 28.3024 108.525 28.0139 109.23 27.469C109.967 26.9241 110.319 26.219 110.319 25.3536C110.319 24.0715 109.134 23.2381 107.627 22.7573C105.512 22.0201 102.723 21.1868 102.723 18.3341C102.723 16.5072 103.973 14.552 106.153 13.4301C107.307 12.8532 108.525 12.5647 109.807 12.5647C111.217 12.5647 112.371 12.8852 113.3 13.5263C113.877 13.943 114.166 14.5199 114.166 15.3212C114.166 15.7699 114.102 16.2187 114.005 16.6995C113.845 17.4046 113.493 17.7572 113.012 17.7572C112.755 17.7572 112.563 17.6931 112.339 17.4367L112.114 17.1482C112.018 17.02 111.762 16.411 111.666 16.2828C110.993 14.9366 110.031 14.2635 108.717 14.2635C107.178 14.2635 105.64 15.4174 105.64 16.9879C105.64 20.3534 113.3 19.0713 113.3 24.1035C113.3 25.8985 112.178 27.7896 110.159 28.9114C108.845 29.6486 107.435 30.0012 105.864 30.0012C103.845 30.0012 101.986 29.3601 101.217 28.4947C100.768 28.0139 100.544 27.2126 100.544 26.0587Z" fill="white"/>
<path d="M64.6015 7.94921C64.6015 8.30179 64.2489 8.75052 63.5438 9.32746C62.1655 10.4813 61.6847 10.4813 60.6591 9.29541C60.1783 8.68642 59.9219 8.17358 59.9219 7.821C59.9219 7.46843 60.2744 6.98765 60.9475 6.4107C61.6527 5.83376 62.1976 5.54529 62.5501 5.54529C62.9027 5.54529 63.3194 5.86582 63.8322 6.47481C64.3451 7.0838 64.6015 7.56459 64.6015 7.94921Z" fill="#FF8000"/>
<path fill-rule="evenodd" clip-rule="evenodd" d="M73.4828 3.76104C73.7999 3.98757 77.6962 5.02961 78.6929 5.25614C78.7836 5.30144 79.0102 5.34675 79.1008 5.39205L79.5537 5.66389C74.9325 7.02307 77.4697 6.93246 72.0782 3.89696C71.2627 3.4439 70.6738 3.03614 69.677 3.80634L71.7159 7.83858C70.8098 8.01981 70.0395 7.79327 68.9521 8.15572C68.9974 8.15572 69.0429 8.15572 69.0882 8.20103L69.8584 8.56347C70.2208 8.65409 70.4926 8.69939 70.8098 8.79C71.8971 9.15245 71.0816 9.4696 72.4861 9.56021C74.0265 9.65082 75.5215 9.60551 77.1525 9.60551C80.6864 9.65082 83.1783 8.92592 86.531 8.33694C86.984 9.10715 87.0294 9.28837 87.8902 9.24306C88.5244 9.19776 89.1586 9.06184 89.5211 8.79L89.2039 7.65735C89.2039 7.61205 89.1587 7.56675 89.1587 7.52144C90.1102 7.43083 89.2946 7.38552 89.9288 8.06511C90.3366 8.47287 90.3819 8.42756 90.9709 8.38225C93.7345 8.20103 92.6925 7.43082 92.3301 6.43409C95.0031 5.30144 99.6243 4.16879 101.255 2.53778C103.384 0.408393 98.9901 0.227164 98.1746 0.0912462C96.3624 -0.271202 94.2329 0.544309 92.8737 1.04268C91.0615 1.67696 84.8092 4.2141 83.7219 4.44063C82.408 4.66716 77.6963 3.80634 76.02 3.4892C75.2045 3.35328 74.0264 3.17206 73.4828 3.76104Z" fill="#FF8000"/>
</g>
<defs>
<clipPath id="clip0_24_1575">
<rect width="115" height="30" fill="white"/>
</clipPath>
</defs>
</svg>
