<svg width="115" height="30" viewBox="0 0 115 30" fill="none" xmlns="http://www.w3.org/2000/svg">
<path d="M17.4437 23.3663C17.9886 23.3663 18.2771 23.6228 18.2771 24.1676C18.2771 24.5202 18.1489 25.001 17.8604 25.61C17.5719 26.2831 17.0911 27.8537 16.8347 28.5268C16.5783 29.1678 15.8091 29.8409 14.6552 29.8409C14.4949 29.8409 13.8859 29.8088 12.7641 29.7447C11.6423 29.6806 10.5204 29.6486 9.3986 29.6486H1.03295C0.488063 29.6486 0.199592 29.4563 0.199592 29.0396C0.16754 28.5909 0.616272 28.4627 0.968847 28.2703C1.44963 28.046 1.80221 27.7575 2.05862 27.4049C2.44325 26.828 2.79583 25.7382 3.11635 24.1356L5.64848 11.6673C5.87285 10.5454 6.00106 9.77617 6.00106 9.29539C6.00106 8.7505 5.77669 8.36587 5.2959 8.10945C4.81512 7.85304 4.59075 7.59662 4.59075 7.37225C4.59075 6.95557 4.94333 6.76326 5.64848 6.76326H14.0462C15.2962 6.76326 16.5142 6.73121 17.7642 6.63505C19.0143 6.53889 19.7194 6.50684 19.8476 6.50684C20.5207 6.50684 20.8413 6.76326 20.8413 7.24404C20.8733 7.82098 20.4566 9.4877 20.1682 11.5711C20.072 12.3404 19.7194 12.725 19.1745 12.725C17.6681 12.725 18.8861 10.3211 16.7706 9.07102C16.0655 8.65434 14.3026 8.42998 11.482 8.42998H10.232C9.78322 8.42998 9.52681 8.65434 9.43065 9.10308L8.08445 15.7058C8.02035 16.0264 7.9883 16.2187 7.9883 16.3148C7.9883 16.6033 8.18061 16.7315 8.59729 16.7315C10.0076 16.7315 11.0653 16.7315 11.7705 16.6995L13.7898 16.5713C14.559 16.5072 15.0719 16.4751 15.3603 16.4751C15.9373 16.4751 16.2257 16.6354 16.2257 16.9559C16.2257 16.9879 16.1296 17.2444 15.9693 17.6931C15.6808 18.5585 15.3924 18.7508 14.1423 18.7508C13.8539 18.7508 13.4051 18.7188 12.732 18.6867C12.0589 18.6547 11.5461 18.6226 11.1935 18.6226C10.5204 18.5906 9.43065 18.5906 7.92419 18.5906C7.63572 18.5906 7.47546 18.7188 7.41136 19.0072L6.35363 24.2959C6.06516 25.7703 5.93695 26.6036 5.93695 26.7959C5.93695 27.7896 6.70621 28.0139 8.14856 28.0139C10.264 28.0139 11.8346 27.7896 12.8282 27.3408C13.8218 26.86 14.7193 26.1869 15.4565 25.2574C15.8091 24.8728 16.3219 24.1035 16.5463 23.8792C16.7706 23.6228 17.0911 23.3663 17.4437 23.3663Z" fill="#303E48"/>
<path d="M37.4504 14.7763C37.4504 15.5135 37.1298 15.8982 36.4888 15.8982C36.1362 15.8982 35.4952 15.6417 35.0785 15.6417C33.7323 15.6417 32.1297 17.4367 30.3027 21.0265L32.6425 26.1228C33.2194 27.3408 33.7323 28.0139 34.181 28.1742C34.4695 28.1742 34.9182 28.3024 34.9182 28.7832C34.9182 28.9434 34.79 29.1358 34.5656 29.296C34.0528 29.6806 32.8028 30.0012 32.1938 30.0012C31.2643 30.0012 30.8155 29.4883 30.2706 28.2383L27.8667 22.9497C27.3218 24.1356 26.5526 25.4497 25.3666 27.1165C24.2128 28.7832 22.7384 30.0012 21.4883 30.0012C20.4306 30.0012 19.7254 28.9114 19.7254 27.7254C19.7254 26.9882 20.046 26.6357 20.7191 26.6357C21.0075 26.6357 21.6806 26.86 22.0653 26.86C23.5717 26.86 25.2064 24.9369 27.0334 21.1227L24.8859 16.443C24.2128 14.9366 23.8602 14.552 23.3153 14.3917C23.0268 14.3917 22.6422 14.1673 22.6422 13.7827C22.6422 13.4622 22.9948 13.1737 23.732 12.9173C24.4051 12.6929 24.95 12.5647 25.3987 12.5647C26.2641 12.5647 26.6167 12.9814 27.2577 14.3596L29.5014 19.2636C29.854 18.5264 30.2386 17.8533 30.6553 17.1802C31.5207 15.802 32.6425 14.1353 33.8925 13.2378C35.8157 11.7314 37.5465 12.9814 37.4504 14.7763Z" fill="#303E48"/>
<path d="M52.4731 12.5647C53.5949 12.5647 54.1398 13.4622 54.1398 15.2892C54.1398 17.5649 53.4347 20.097 51.9923 22.8856C49.5884 27.5972 46.7678 30.0012 44.0434 30.0012C42.4087 30.0012 40.9663 29.1358 40.3573 27.5011C40.0048 26.6036 39.8445 25.4497 39.8445 24.0394C39.8445 23.1099 39.9407 21.8278 40.133 20.1932C40.3253 18.5585 40.4214 17.3726 40.4214 16.6674C40.4214 16.0584 40.2612 15.6417 39.9086 15.4494C39.3958 15.1289 38.1778 15.1289 38.306 14.5199C38.306 14.1673 38.6586 13.9109 39.3637 13.7507C40.5176 13.4942 41.6074 13.1417 42.6331 12.6929C42.8254 12.5968 43.0177 12.5647 43.21 12.5647C43.6908 12.5647 43.9151 12.7891 43.9151 13.2378C43.9151 13.2699 43.9151 13.3981 43.8831 13.5904L43.4664 17.052C43.0818 20.097 42.8254 22.4689 42.8254 24.1676C42.8254 26.6357 43.5626 27.8537 45.037 27.8537C46.0306 27.8537 46.9601 27.3729 47.8576 26.3793C48.755 25.3856 49.4922 24.2318 50.1012 22.9817C51.0949 20.8663 51.5756 19.1354 51.5756 17.7572C51.5756 14.8084 49.6205 15.5776 49.6205 14.2955C49.6205 13.8468 49.973 13.4622 50.6461 13.1096C51.3192 12.757 51.9282 12.5647 52.4731 12.5647Z" fill="#303E48"/>
<path d="M62.6467 26.6677C62.9031 26.6677 63.1275 26.8921 63.1275 27.1485C63.1275 27.5652 62.7429 28.1101 61.9736 28.8152C61.0761 29.6165 60.1466 30.0012 59.153 30.0012C57.7427 30.0012 56.9414 28.9755 56.9414 27.4049C56.9414 26.7959 57.0375 25.9626 57.2619 24.969L58.6402 18.238C58.8645 17.0841 58.9607 16.3789 58.9607 16.0905C58.9607 14.584 56.9734 15.1289 56.9734 14.1353C56.9734 13.7186 57.3581 13.4942 58.0953 13.3981C59.2492 13.2699 60.371 13.0455 61.4287 12.6929C61.6851 12.5968 61.8774 12.5647 62.0057 12.5647C62.4864 12.5647 62.7108 12.757 62.7108 13.1737C62.7108 13.2058 62.7108 13.3019 62.6787 13.3981L60.8197 22.4368C60.3069 25.0331 60.0505 26.5075 60.0505 26.86C60.0505 27.4049 60.2428 27.6934 60.6595 27.6934C60.9479 27.6934 61.3005 27.5331 61.7172 27.1806C62.1339 26.828 62.4544 26.6677 62.6467 26.6677Z" fill="#303E48"/>
<path d="M65.5489 26.0587C65.5489 24.6484 65.7412 23.9433 66.6067 23.9433C66.8631 23.9433 66.9913 24.0074 67.2157 24.2959C67.44 24.4882 67.7926 25.2254 68.1452 25.8344C69.0747 27.469 70.2927 28.3024 71.8312 28.3024C72.7286 28.3024 73.53 28.0139 74.2351 27.469C74.9723 26.9241 75.3249 26.219 75.3249 25.3536C75.3249 24.0715 74.1389 23.2381 72.6325 22.7573C70.517 22.0201 67.7285 21.1868 67.7285 18.3341C67.7285 16.5072 68.9785 14.552 71.1581 13.4301C72.312 12.8532 73.5299 12.5647 74.812 12.5647C76.2223 12.5647 77.3762 12.8852 78.3057 13.5263C78.8827 13.943 79.1711 14.5199 79.1711 15.3212C79.1711 15.7699 79.107 16.2187 79.0109 16.6995C78.8506 17.4046 78.498 17.7572 78.0173 17.7572C77.7608 17.7572 77.5685 17.6931 77.3442 17.4367L77.1198 17.1482C77.0236 17.02 76.7672 16.411 76.6711 16.2828C75.998 14.9366 75.0364 14.2635 73.7223 14.2635C72.1837 14.2635 70.6452 15.4174 70.6452 16.9879C70.6452 20.3534 78.3057 19.0713 78.3057 24.1035C78.3057 25.8985 77.1839 27.7896 75.1646 28.9114C73.8505 29.6486 72.4402 30.0012 70.8696 30.0012C68.8503 30.0012 66.9913 29.3601 66.222 28.4947C65.7733 28.0139 65.5489 27.2126 65.5489 26.0587Z" fill="#303E48"/>
<path d="M88.3233 15.0327C87.2335 16.1225 86.3681 17.7251 85.7271 19.8085C85.1181 21.8919 84.7976 23.6228 84.7976 25.001C84.7976 26.7639 85.3104 27.6293 86.3361 27.6293C87.4579 27.6293 88.9003 26.3151 90.7272 23.7189C91.6568 22.3727 92.426 20.9624 93.035 19.488C93.644 17.9816 93.9645 16.9238 93.9645 16.2828C93.9645 15.6738 93.5478 15.161 92.7145 14.7443C91.9132 14.3276 91.176 14.1032 90.5349 14.1032C89.7336 14.1032 88.9964 14.4238 88.3233 15.0327ZM97.0736 12.5647C97.4903 12.5647 97.6826 12.7891 97.6826 13.2378C97.6826 13.4942 97.2018 15.8341 96.2723 20.2893C95.471 24.1035 95.0543 26.2831 95.0543 26.7959C95.0543 27.3729 95.2466 27.6613 95.6633 27.6613C95.9518 27.6613 96.2723 27.5011 96.689 27.1485C97.1057 26.7959 97.4262 26.6357 97.6185 26.6357C97.9711 26.6357 98.1313 26.7959 98.1313 27.1485C98.1313 27.3408 98.0672 27.5331 97.907 27.7575C97.0415 29.0396 95.5351 30.0012 94.1248 30.0012C92.6824 30.0012 91.9452 29.1678 91.9452 27.469C91.9452 26.9882 92.1376 25.7703 92.4901 23.8471L92.5222 23.6228C92.5222 23.5907 92.4901 23.5587 92.4581 23.5587C92.426 23.5587 92.394 23.5907 92.3619 23.6548C91.4324 25.3536 90.3426 26.828 89.0285 28.1101C87.7143 29.3601 86.3361 30.0012 84.8937 30.0012C82.7462 30.0012 81.4641 28.2062 81.4641 25.3856C81.4641 22.7253 82.2334 20.097 83.7398 17.5008C85.6309 14.3276 88.2272 12.5647 90.8875 12.5647C91.6888 12.5647 92.5863 12.725 93.5158 13.0776C94.4774 13.4301 95.0543 13.5904 95.2466 13.5904C95.5351 13.5904 95.8877 13.4301 96.2402 13.0776C96.5928 12.725 96.8813 12.5647 97.0736 12.5647Z" fill="#303E48"/>
<path d="M100.544 26.0587C100.544 24.6484 100.736 23.9433 101.601 23.9433C101.858 23.9433 101.986 24.0074 102.21 24.2959C102.435 24.4882 102.787 25.2254 103.14 25.8344C104.069 27.469 105.287 28.3024 106.826 28.3024C107.723 28.3024 108.525 28.0139 109.23 27.469C109.967 26.9241 110.319 26.219 110.319 25.3536C110.319 24.0715 109.134 23.2381 107.627 22.7573C105.512 22.0201 102.723 21.1868 102.723 18.3341C102.723 16.5072 103.973 14.552 106.153 13.4301C107.307 12.8532 108.525 12.5647 109.807 12.5647C111.217 12.5647 112.371 12.8852 113.3 13.5263C113.877 13.943 114.166 14.5199 114.166 15.3212C114.166 15.7699 114.102 16.2187 114.005 16.6995C113.845 17.4046 113.493 17.7572 113.012 17.7572C112.755 17.7572 112.563 17.6931 112.339 17.4367L112.114 17.1482C112.018 17.02 111.762 16.411 111.666 16.2828C110.993 14.9366 110.031 14.2635 108.717 14.2635C107.178 14.2635 105.64 15.4174 105.64 16.9879C105.64 20.3534 113.3 19.0713 113.3 24.1035C113.3 25.8985 112.178 27.7896 110.159 28.9114C108.845 29.6486 107.435 30.0012 105.864 30.0012C103.845 30.0012 101.986 29.3601 101.217 28.4947C100.768 28.0139 100.544 27.2126 100.544 26.0587Z" fill="#303E48"/>
<path d="M64.6019 7.94919C64.6019 8.30177 64.2493 8.7505 63.5442 9.32744C62.1659 10.4813 61.6851 10.4813 60.6595 9.29539C60.1787 8.6864 59.9223 8.17356 59.9223 7.82098C59.9223 7.46841 60.2748 6.98763 60.9479 6.41068C61.6531 5.83374 62.198 5.54527 62.5505 5.54527C62.9031 5.54527 63.3198 5.8658 63.8326 6.47479C64.3455 7.08378 64.6019 7.56457 64.6019 7.94919Z" fill="#FF8000"/>
<path fill-rule="evenodd" clip-rule="evenodd" d="M73.4824 3.76104C73.7995 3.98757 77.6958 5.02961 78.6925 5.25614C78.7832 5.30144 79.0097 5.34675 79.1003 5.39205L79.5533 5.66389C74.9321 7.02307 77.4693 6.93246 72.0778 3.89696C71.2623 3.4439 70.6734 3.03614 69.6766 3.80634L71.7154 7.83858C70.8093 8.01981 70.0391 7.79327 68.9517 8.15572C68.997 8.15572 69.0424 8.15572 69.0877 8.20103L69.8579 8.56347C70.2203 8.65409 70.4921 8.69939 70.8093 8.79C71.8966 9.15245 71.0811 9.4696 72.4856 9.56021C74.026 9.65082 75.5211 9.60551 77.1521 9.60551C80.686 9.65082 83.1778 8.92592 86.5305 8.33694C86.9835 9.10715 87.0289 9.28837 87.8897 9.24306C88.5239 9.19776 89.1582 9.06184 89.5207 8.79L89.2035 7.65735C89.2035 7.61205 89.1582 7.56675 89.1582 7.52144C90.1097 7.43083 89.2942 7.38552 89.9284 8.06511C90.3362 8.47287 90.3815 8.42756 90.9705 8.38225C93.7341 8.20103 92.6921 7.43082 92.3297 6.43409C95.0027 5.30144 99.6239 4.16879 101.255 2.53778C103.384 0.408393 98.9896 0.227164 98.1741 0.0912462C96.3619 -0.271202 94.2325 0.544309 92.8733 1.04268C91.0611 1.67696 84.8088 4.2141 83.7215 4.44063C82.4076 4.66716 77.6958 3.80634 76.0195 3.4892C75.204 3.35328 74.026 3.17206 73.4824 3.76104Z" fill="#FF8000"/>
</svg>
